<?xml version="1.0" standalone="no"?>
<!DOCTYPE svg PUBLIC "-//W3C//DTD SVG 1.1//EN" "http://www.w3.org/Graphics/SVG/1.1/DTD/svg11.dtd">
<svg width="100%" height="100%" viewBox="0 0 300 300" version="1.1" xmlns="http://www.w3.org/2000/svg" xmlns:xlink="http://www.w3.org/1999/xlink" xml:space="preserve" style="fill-rule:evenodd;clip-rule:evenodd;stroke-linejoin:round;stroke-miterlimit:1.41421;">
    <g transform="matrix(1,0,0,1,0.5,0)">
        <g transform="matrix(1.17057,0,0,1.06343,-28.2799,-10.3175)">
            <rect x="0" y="0" width="299.585" height="301.51" style="fill:rgb(69,135,177);"/>
        </g>
        <g transform="matrix(11.4702,0,0,11.4702,35.488,35.5138)">
            <path d="M10,2C11.087,2 12.123,2.212 13.11,2.635C14.097,3.058 14.947,3.627 15.66,4.34C16.373,5.053 16.942,5.903 17.365,6.89C17.788,7.877 18,8.913 18,10C18,11.087 17.788,12.123 17.365,13.11C16.942,14.097 16.373,14.947 15.66,15.66C14.947,16.373 14.097,16.942 13.11,17.365C12.123,17.788 11.087,18 10,18C8.913,18 7.877,17.788 6.89,17.365C5.903,16.942 5.053,16.373 4.34,15.66C3.627,14.947 3.058,14.097 2.635,13.11C2.212,12.123 2,11.087 2,10C2,8.913 2.212,7.877 2.635,6.89C3.058,5.903 3.627,5.053 4.34,4.34C5.053,3.627 5.903,3.058 6.89,2.635C7.877,2.212 8.913,2 10,2ZM10,15C10.907,15 11.743,14.777 12.51,14.33C13.277,13.883 13.883,13.277 14.33,12.51C14.777,11.743 15,10.907 15,10C15,9.093 14.777,8.257 14.33,7.49C13.883,6.723 13.277,6.117 12.51,5.67C11.743,5.223 10.907,5 10,5C9.093,5 8.257,5.223 7.49,5.67C6.723,6.117 6.117,6.723 5.67,7.49C5.223,8.257 5,9.093 5,10C5,10.907 5.223,11.743 5.67,12.51C6.117,13.277 6.723,13.883 7.49,14.33C8.257,14.777 9.093,15 10,15Z" style="fill:white;fill-rule:nonzero;"/>
        </g>
    </g>
</svg>
